<?xml version="1.0" standalone="no"?>
<!DOCTYPE svg PUBLIC "-//W3C//DTD SVG 20010904//EN"
 "http://www.w3.org/TR/2001/REC-SVG-20010904/DTD/svg10.dtd">
<svg version="1.0" xmlns="http://www.w3.org/2000/svg"
 width="1504.000000pt" height="1344.000000pt" viewBox="0 0 1504.000000 1344.000000"
 preserveAspectRatio="xMidYMid meet">
<metadata>
Created by potrace 1.15, written by Peter Selinger 2001-2017
</metadata>
<g transform="translate(0.000000,1344.000000) scale(0.100000,-0.100000)"
fill="#000000" stroke="none">
<path d="M10780 13364 c-162 -20 -300 -70 -426 -153 -196 -130 -331 -311 -401
-538 -24 -79 -27 -104 -27 -248 -1 -173 4 -203 66 -358 26 -67 29 -80 17 -91
-8 -7 -528 -406 -1156 -886 -629 -480 -1143 -876 -1143 -879 0 -7 344 -459
368 -483 16 -16 56 12 674 485 1105 845 1315 1006 1531 1170 l208 159 57 -21
c165 -59 337 -71 508 -36 36 8 -11 83 424 -675 128 -223 364 -634 525 -915
161 -280 520 -905 798 -1389 l504 -878 -52 -80 c-60 -88 -106 -192 -137 -306
-16 -60 -21 -107 -21 -217 0 -150 17 -244 69 -367 l24 -57 -847 -1118 c-942
-1245 -1463 -1938 -1463 -1947 0 -4 678 -5 1508 -4 l1507 3 88 28 c172 53 302
133 423 258 122 127 194 254 242 429 l27 95 3 984 3 984 54 59 c106 114 182
249 225 399 31 106 39 316 15 430 -94 464 -520 796 -984 766 -53 -4 -105 -9
-116 -12 -17 -5 -54 54 -289 462 -454 787 -1121 1947 -1484 2578 -190 330
-375 652 -413 716 l-67 117 35 53 c205 303 214 716 23 1026 -58 94 -157 204
-243 269 -84 63 -243 139 -346 163 -84 20 -245 33 -311 25z m226 -662 c93 -48
144 -112 170 -213 19 -76 12 -137 -25 -216 -92 -193 -362 -233 -513 -76 -59
61 -83 124 -83 218 0 62 5 91 23 130 37 80 115 150 193 174 56 17 188 8 235
-17z m3182 -5403 c231 -112 227 -451 -6 -566 -48 -24 -70 -28 -137 -28 -95 0
-167 29 -227 90 -64 65 -83 116 -83 225 0 80 4 102 23 140 84 161 263 219 430
139z m-456 -1173 c79 -30 202 -56 263 -56 l45 0 0 -828 c0 -734 -2 -834 -16
-876 -22 -64 -100 -147 -166 -177 l-53 -24 -829 -3 -829 -2 25 32 c76 102
1344 1779 1406 1861 41 53 78 97 82 97 4 0 37 -11 72 -24z"/>
<path d="M4425 10504 c-165 -35 -296 -111 -395 -230 -50 -60 -114 -190 -129
-262 -8 -36 -11 -369 -11 -1047 l0 -994 -1032 -3 -1033 -3 -80 -23 c-336 -97
-577 -334 -682 -669 l-28 -88 0 -950 0 -950 23 -85 c73 -278 261 -504 518
-627 186 -88 175 -87 802 -91 l552 -3 0 -320 0 -319 -543 0 c-650 0 -747 -9
-1005 -95 -404 -135 -759 -409 -995 -768 -125 -189 -224 -430 -273 -662 -36
-167 -44 -459 -19 -637 94 -659 527 -1226 1141 -1489 139 -59 284 -102 454
-132 l125 -22 3335 0 c3173 0 3340 1 3445 18 445 73 796 254 1101 568 297 306
474 683 525 1114 14 123 6 407 -15 523 -129 699 -615 1266 -1278 1487 -258 86
-355 95 -1005 95 l-543 0 0 319 0 320 553 4 c631 4 619 2 812 97 248 121 434
348 507 620 l23 85 0 940 c0 1027 2 989 -60 1181 -37 114 -89 221 -148 309
-23 33 -426 553 -896 1155 -470 602 -893 1144 -940 1205 -140 180 -235 262
-388 339 -86 43 -179 72 -278 85 -73 11 -2092 14 -2140 5z m2151 -664 c68 -35
71 -38 291 -320 1405 -1807 1686 -2172 1712 -2225 31 -61 54 -141 66 -227 l6
-48 -1819 0 -1819 0 -246 370 -247 370 0 1060 0 1061 994 -3 993 -3 69 -35z
m-2280 -2910 c150 -223 295 -438 324 -477 l52 -73 1989 0 1990 0 -3 -512 -3
-513 -26 -55 c-34 -71 -89 -126 -158 -159 l-56 -26 -3250 0 -3250 0 -67 33
c-75 37 -110 72 -147 152 l-26 55 0 870 0 870 26 56 c44 94 126 159 222 179
23 4 508 7 1077 6 l1035 -1 271 -405z m2444 -2770 l0 -320 -1585 0 -1585 0 0
320 0 320 1585 0 1585 0 0 -320z m1770 -965 c267 -40 498 -151 690 -332 193
-181 319 -411 377 -683 25 -119 24 -362 -1 -485 -51 -246 -161 -456 -330 -633
-179 -187 -385 -302 -661 -369 -65 -16 -293 -18 -3385 -21 -3660 -3 -3411 -7
-3613 59 -334 109 -599 342 -752 660 -196 409 -160 884 98 1269 64 96 231 263
327 327 175 117 369 189 585 216 17 2 1502 5 3300 5 2804 2 3284 0 3365 -13z"/>
<path d="M1825 2554 c-219 -55 -402 -238 -460 -459 -19 -76 -19 -233 0 -310
55 -219 240 -404 460 -460 77 -20 232 -20 310 0 157 40 321 165 398 306 72
128 96 312 62 457 -48 202 -208 379 -405 449 -94 33 -269 42 -365 17z"/>
<path d="M3730 2555 c-184 -51 -335 -176 -416 -342 -173 -357 27 -787 414
-888 76 -21 234 -20 313 0 134 35 263 120 345 228 262 346 117 831 -294 985
-86 32 -275 41 -362 17z"/>
<path d="M6270 2554 c-296 -79 -494 -349 -477 -649 9 -150 61 -274 164 -394
55 -64 166 -137 256 -169 95 -34 269 -42 367 -17 210 54 386 224 452 435 29
96 31 253 4 345 -66 224 -241 394 -461 450 -75 19 -232 18 -305 -1z"/>
<path d="M8175 2554 c-209 -51 -389 -224 -455 -439 -24 -81 -29 -238 -10 -320
54 -223 243 -413 465 -470 76 -19 234 -19 310 0 221 56 408 245 459 465 20 82
20 217 1 297 -53 225 -242 415 -466 468 -80 18 -224 18 -304 -1z"/>
</g>
</svg>
